<svg width="125" height="285" viewBox="0 0 125 285" fill="none" xmlns="http://www.w3.org/2000/svg">
    <g clip-path="url(#a)" stroke="#f0f1f2" stroke-width=".5" stroke-miterlimit="10">
        <path d="M284.93 284.928H1.07m283.86-6.579L1.07 283.445m283.86-11.676L1.07 281.963m283.86-16.773L1.07 280.387m283.86-21.776L1.07 278.905m283.86-26.874L1.07 277.422m283.86-31.97L1.07 275.847m283.86-36.974L1.07 274.364m283.86-42.071L1.07 272.881m283.86-47.167L1.07 271.399m283.86-52.264L1.07 269.823m283.86-57.267L1.07 268.341m283.86-62.365L1.07 266.858m283.86-67.554L1.07 265.283m283.86-72.558L1.07 263.8m283.86-77.654L1.07 262.317m283.86-82.751L1.07 260.835m283.86-87.848L1.07 259.259m283.86-92.851L1.07 257.777m283.86-97.949L1.07 256.294m283.86-103.045L1.07 254.719M284.93 146.67L1.07 253.236M284.93 140.09L1.07 251.753m283.86-118.242L1.07 250.271m283.86-123.339L1.07 248.696m283.86-128.343L1.07 247.213m283.86-133.44L1.07 245.73m283.86-138.536L1.07 244.247m283.86-143.632L1.07 242.672M284.93 94.035L1.07 241.19M284.93 87.456L1.07 239.707m283.86-158.83L1.07 238.13M284.93 74.297L1.07 236.65M284.93 67.718L1.07 235.166m283.86-174.12L1.07 233.683M284.93 54.467L1.07 232.108M284.93 52.984l-141.883 86.273L1.07 225.529m283.86-174.12l-141.883 83.77L1.07 218.857M284.93 49.834l-141.883 81.175L1.07 212.278m283.86-164.02l-141.883 78.674L1.07 205.606m283.86-158.83l-141.883 76.079L1.07 199.026M284.93 45.2l-141.883 73.577L1.07 192.354M284.93 43.625L143.047 114.7 1.07 185.775M284.93 42.05l-141.883 68.573L1.07 179.103M284.93 40.474l-141.883 65.979L1.07 172.431M284.93 38.992l-141.883 63.383L1.07 165.852M284.93 37.416L143.047 98.298 1.07 159.18M284.93 35.841l-141.883 58.38L1.07 152.6M284.93 34.266L143.047 90.143 1.07 145.928M284.93 32.783L143.047 86.066 1.07 139.35M284.93 31.208L143.047 81.896 1.07 132.677M284.93 29.632L143.047 77.82 1.07 126.098m283.86-98.041L143.047 73.742 1.07 119.426m283.86-92.944L143.047 69.664 1.07 112.847M284.93 25L143.047 65.586 1.07 106.175m283.86-82.751L143.047 61.51 1.07 99.503m283.86-77.654L143.047 57.431 1.07 92.924m283.86-72.651l-141.883 32.99L1.07 86.251M284.93 18.79L143.047 49.185 1.07 79.672m283.86-62.457L143.047 45.108 1.07 73m283.86-57.36L143.047 41.03 1.07 66.42m283.86-52.355L143.047 36.953 1.07 59.75m283.86-47.168L143.047 32.876 1.07 53.17m283.86-42.163L143.047 28.706 1.07 46.498M284.93 9.431L143.047 24.628 1.07 39.918M284.93 7.856L143.047 20.55 1.07 33.246M284.93 6.28L143.047 16.475 1.07 26.574M284.93 4.798l-141.883 7.598-141.977 7.6M284.93 3.222L143.047 8.32 1.07 13.323M284.93 1.647L143.047 4.15 1.07 6.744M284.93.072H1.07"/>
    </g>
    <defs>
        <clipPath id="a">
            <path fill="#fff" transform="matrix(0 -1 -1 0 285.5 285.5)" d="M0 0h286v285H0z"/>
        </clipPath>
    </defs>
</svg>