<svg width="1440" height="264" viewBox="0 0 1440 264" fill="none" xmlns="http://www.w3.org/2000/svg"><path d="M1439.69 883.606c-263.16-21.183-489.028-144.332-751.245-52.581-19.491 6.831-39.044 12.785-58.66 18.112-205.312 55.151-420.086 31.586-629.66 33.278m1439.495-40.736c-267.73-20.87-514.779-162.632-781.571-76.584C443.964 834.158 219.099 809.591 0 840.488m1439.62-40.736c-271.55-16.984-535.523-170.216-805.26-89.182C426.416 773.054 210.45 747.359 0 798.561m1439.69-40.799c-274.75-10.654-551.386-169.087-823.004-92.19C412.942 723.23 203.87 691.644.063 756.571m1439.627-40.736c-184.26-1.755-358.23-40.235-538.35-85.233-107.043-26.761-190.835-30.96-296.875-2.319-201.3 54.461-404.794 12.346-604.402 86.298m1439.627-40.673c-187.27 4.261-364.56-25.382-547.814-70.882-106.29-26.384-189.017-33.717-294.743-6.016-200.549 52.519-399.279-4.136-597.07 75.707m1439.627-40.799c-188.58 10.779-368.01-8.837-553.141-53.772-105.476-25.57-187.136-35.284-292.362-8.398C392.385 621.326 198.668 546.685.063 630.664m1439.627-40.673c-188.52 17.297-369.33 8.648-555.146-35.034-104.473-24.567-185.006-36.286-289.479-10.027-204.936 51.516-392.95-43.682-594.94 43.87m1439.565-40.736c-187.33 23.439-369.01 26.322-554.77-15.919-103.283-23.502-182.249-37.164-285.844-11.594C389.189 572.38 207.944 455.435.126 546.935m1439.624-40.861c-180.12 28.39-357.85 43.118-537.909 5.64-98.206-20.493-177.109-44.81-276.569-22.185-79.091 17.986-147.34 43.494-228.124 21.809-153.92-41.3-238.025-78.088-397.023-6.392m1439.625-40.799c-177.99 32.84-356.73 58.472-535.778 21.872-96.075-19.616-172.221-46.439-269.926-25.194-78.402 17.047-145.147 43.181-224.677 17.987-160.752-51.015-240.281-93.631-409.18-15.793M1439.75 422.22c-175.48 36.788-353.4 68.687-531.015 34.719-94.133-17.986-168.147-45.75-263.972-25.758-78.59 16.42-144.771 40.549-224.175 13.663-44.246-14.979-84.231-46.126-128.665-61.042-106.478-35.66-189.706-7.709-291.86 37.227m1439.687-40.737c-173.16 41.113-349.33 77.588-525.813 47.819-93.381-15.794-166.518-42.68-261.277-23.126-79.906 16.545-147.278 39.546-227.748 10.591-44.434-15.981-84.105-48.507-128.476-64.99-107.231-39.859-191.712-13.725-296.31 28.516m1439.624-40.799c-171.09 45.75-345.57 86.925-521.238 61.668-93.506-13.474-166.581-38.731-261.215-18.801-81.66 17.234-151.727 40.987-233.638 8.836-44.058-17.297-82.476-51.892-126.095-70.442C190.897 274.127 106.228 298.13.063 337.112m1439.747-40.737c-169.09 50.576-342 96.452-516.849 75.958-94.383-11.093-167.959-34.03-263.094-13.161-83.729 18.363-157.744 44.434-241.41 8.21-43.244-18.739-79.656-56.028-122.021-77.086-105.038-52.142-189.142-30.521-296.248 4.889m1439.622-40.737c-167.02 55.464-338.24 106.04-512.462 90.247-95.636-8.649-170.278-28.766-266.353-6.581-85.797 19.805-165.139 49.636-250.56 8.524-42.303-20.368-76.083-60.729-116.882-84.419-102.53-59.663-185.57-40.485-293.302-8.962m1439.559-40.736c-164.89 60.415-334.29 115.503-507.699 104.285-97.203-6.33-173.098-23.126-270.427.627-87.739 21.434-173.725 56.091-260.65 9.526-41.3-22.123-72.197-65.68-111.242-92.252C190.27 167.022 108.547 183.692.188 211.268m1439.622-40.674c-162.44 65.178-329.77 124.653-502.183 117.571-98.771-4.011-176.044-17.422-274.626 8.085-89.495 23.126-183.064 63.298-271.242 11.155-40.486-23.94-68.312-70.693-105.602-100.086-96.263-75.895-176.795-61.668-285.969-37.916m1439.622-40.736c-159.68 69.69-324.64 133.176-495.603 129.855-100.149-1.943-178.676-11.782-278.449 15.417-90.936 24.818-192.652 70.631-281.896 13.098-39.859-25.695-64.802-75.456-100.525-107.607C190.208 95.513 110.615 107.358.188 127.413M1439.81 86.74c-155.67 73.576-319.06 142.577-487.706 140.697-101.34-1.128-180.682-6.455-281.207 22.374-92.315 26.447-201.802 77.524-292.048 15.229-39.671-27.388-62.171-79.718-96.577-114.501C191.586 59.102 112.495 68.816.251 85.486M1439.87 44.75c-151.72 77.211-311.91 149.596-478.052 149.784-101.967.126-181.371-1.817-282.398 28.516-93.756 28.139-209.761 83.415-301.323 17.36-39.985-28.892-60.666-83.29-94.384-120.267C194.407 22.125 115.065 29.833.251 43.622m1439.619-40.8c-146.96 77.65-302.7 152.355-464.515 155.864-101.967 2.194-182.813 3.447-283.714 33.906-95.573 28.891-215.276 85.859-308.656 19.114-41.238-29.455-62.421-85.233-96.765-123.65C196.349-12.532 117.634-8.772.313 1.632M1439.87-39.104c-139.63 72.51-287.28 149.471-440.199 161.378-100.65 7.897-189.205 9.965-289.291 36.35-99.146 26.134-219.976 78.778-316.49 16.044-43.62-28.391-69.691-83.917-106.792-121.896C194.595-41.988 118.073-46.312.188-40.295m1439.682-40.8c-133.42 69.44-275 153.295-420.71 171.03-105.537 12.849-206.939 16.483-312.54 38.857-113.059 23.941-225.179 55.59-328.085-23-46.815-35.786-80.721-93.82-127.849-129.98C168.649-87.049 93.882-83.79.251-82.223m1439.619-40.799c-122.14 64.74-251.31 154.484-383.92 180.242-104.536 20.306-214.461 15.794-320.313 30.396-117.697 16.295-233.953 39.922-342.499-31.712-50.388-33.278-90.999-87.113-141.011-121.77-83.04-57.657-158.997-57.97-251.939-58.346m1439.752-40.737c-111.12 60.228-225.93 155.864-345.01 188.704-103.97 28.703-222.607 12.722-328.96 19.303C643.948 50.64 521.927 65.18 407.74 1.318 257.642-82.662 175.041-163.194.313-166.139m1439.627-40.799c-101.84 55.965-200.17 155.989-306.72 194.782-103.4 37.666-232.068 7.96-338.798 6.894-126.094-1.253-254.571 4.136-374.461-51.641C268.923-127.22 168.649-203.993.313-208.13m1439.627-40.736c-95.45 51.829-175.54 153.544-271.62 197.1-102.59 46.503-243.479 2.132-350.083-5.64-129.103-9.463-266.102-9.651-390.317-60.164C278.386-178.298 161.755-245.544.313-250.056m1439.627-40.736c-92.63 47.254-153.92 147.089-242.42 193.967-102.09 54.148-256.697-3.823-363.051-16.984-133.866-16.545-274.124-23.877-404.919-65.805C281.645-227.056 155.801-287.408.313-292.046m1439.627-40.736c-93.07 40.861-137.5 135.495-221.61 184.003-103.28 59.537-270.801-8.774-378.032-25.758-138.316-21.872-280.705-33.655-417.517-67.247C278.888-277.13 148.657-329.273.376-333.973M1439.94-374.71c-96.08 30.772-128.79 118.073-212.02 165.578-107.86 61.544-284.402-11.343-395.268-30.709-142.013-24.818-285.531-37.603-427.168-63.11C268.735-327.581 139.381-370.761.376-375.9M1440-416.637c-100.34 15.793-130.23 94.383-216.15 137.251-117.26 58.472-296.188-10.279-415.076-30.647-144.645-24.755-288.163-35.284-433.059-52.017C249.746-376.59 127.223-411.435.376-417.828" stroke="#000" stroke-opacity=".08" stroke-miterlimit="10"/></svg>